<mxfile host="65bd71144e">
    <diagram id="0uytko9SOnYQMW5R9oEK" name="Page-1">
        <mxGraphModel dx="2368" dy="2356" grid="1" gridSize="10" guides="1" tooltips="1" connect="1" arrows="1" fold="1" page="1" pageScale="1" pageWidth="827" pageHeight="1169" math="0" shadow="0">
            <root>
                <mxCell id="0"/>
                <mxCell id="1" parent="0"/>
                <mxCell id="26" value="&lt;font color=&quot;#ffff99&quot;&gt;CD&lt;/font&gt;" style="rounded=0;whiteSpace=wrap;html=1;" parent="1" vertex="1">
                    <mxGeometry y="570" width="120" height="60" as="geometry"/>
                </mxCell>
                <mxCell id="28" value="sa" style="line;strokeWidth=4;html=1;perimeter=backbonePerimeter;points=[];outlineConnect=0;" parent="1" vertex="1">
                    <mxGeometry x="120" y="595" width="160" height="10" as="geometry"/>
                </mxCell>
                <mxCell id="39" value="&lt;font style=&quot;&quot;&gt;CD home&lt;/font&gt;" style="rounded=0;whiteSpace=wrap;html=1;labelBackgroundColor=none;fontSize=14;fontColor=#0000FF;" parent="1" vertex="1">
                    <mxGeometry x="320" y="310" width="120" height="60" as="geometry"/>
                </mxCell>
                <mxCell id="40" value="CD ~" style="rounded=0;whiteSpace=wrap;html=1;labelBackgroundColor=none;fontSize=14;fontColor=#0000FF;" parent="1" vertex="1">
                    <mxGeometry x="320" y="440" width="120" height="60" as="geometry"/>
                </mxCell>
                <mxCell id="41" value="CD -" style="rounded=0;whiteSpace=wrap;html=1;labelBackgroundColor=none;fontSize=14;fontColor=#0000FF;" parent="1" vertex="1">
                    <mxGeometry x="320" y="830" width="120" height="60" as="geometry"/>
                </mxCell>
                <mxCell id="42" value="CD path" style="rounded=0;whiteSpace=wrap;html=1;labelBackgroundColor=none;fontSize=14;fontColor=#0000FF;" parent="1" vertex="1">
                    <mxGeometry x="320" y="570" width="120" height="60" as="geometry"/>
                </mxCell>
                <mxCell id="43" value="CD 3+ args" style="rounded=0;whiteSpace=wrap;html=1;labelBackgroundColor=none;fontSize=14;fontColor=#0000FF;" parent="1" vertex="1">
                    <mxGeometry x="320" y="700" width="120" height="60" as="geometry"/>
                </mxCell>
                <mxCell id="47" value="" style="endArrow=none;html=1;strokeWidth=5;fontSize=14;fontColor=#FFFFFF;" parent="1" edge="1">
                    <mxGeometry width="50" height="50" relative="1" as="geometry">
                        <mxPoint x="280" y="600" as="sourcePoint"/>
                        <mxPoint x="280" y="340" as="targetPoint"/>
                    </mxGeometry>
                </mxCell>
                <mxCell id="48" value="" style="endArrow=none;html=1;strokeWidth=5;fontSize=14;fontColor=#FFFFFF;" parent="1" edge="1">
                    <mxGeometry width="50" height="50" relative="1" as="geometry">
                        <mxPoint x="280" y="860" as="sourcePoint"/>
                        <mxPoint x="280" y="600" as="targetPoint"/>
                    </mxGeometry>
                </mxCell>
                <mxCell id="49" value="" style="endArrow=classic;html=1;strokeWidth=5;fontSize=14;fontColor=#FFFFFF;entryX=0;entryY=0.5;entryDx=0;entryDy=0;" parent="1" target="41" edge="1">
                    <mxGeometry width="50" height="50" relative="1" as="geometry">
                        <mxPoint x="280" y="860" as="sourcePoint"/>
                        <mxPoint x="350" y="790" as="targetPoint"/>
                    </mxGeometry>
                </mxCell>
                <mxCell id="52" value="" style="endArrow=classic;html=1;strokeWidth=5;fontSize=14;fontColor=#FFFFFF;entryX=0;entryY=0.5;entryDx=0;entryDy=0;" parent="1" target="43" edge="1">
                    <mxGeometry width="50" height="50" relative="1" as="geometry">
                        <mxPoint x="280" y="730" as="sourcePoint"/>
                        <mxPoint x="330" y="690" as="targetPoint"/>
                    </mxGeometry>
                </mxCell>
                <mxCell id="53" value="" style="endArrow=classic;html=1;strokeWidth=5;fontSize=14;fontColor=#FFFFFF;entryX=0;entryY=0.5;entryDx=0;entryDy=0;" parent="1" target="42" edge="1">
                    <mxGeometry width="50" height="50" relative="1" as="geometry">
                        <mxPoint x="280" y="600" as="sourcePoint"/>
                        <mxPoint x="330" y="550" as="targetPoint"/>
                    </mxGeometry>
                </mxCell>
                <mxCell id="54" value="" style="endArrow=classic;html=1;strokeWidth=5;fontSize=14;fontColor=#FFFFFF;entryX=0;entryY=0.5;entryDx=0;entryDy=0;" parent="1" target="40" edge="1">
                    <mxGeometry width="50" height="50" relative="1" as="geometry">
                        <mxPoint x="280" y="470" as="sourcePoint"/>
                        <mxPoint x="330" y="420" as="targetPoint"/>
                    </mxGeometry>
                </mxCell>
                <mxCell id="55" value="" style="endArrow=classic;html=1;strokeWidth=5;fontSize=14;fontColor=#FFFFFF;entryX=0;entryY=0.5;entryDx=0;entryDy=0;" parent="1" target="39" edge="1">
                    <mxGeometry width="50" height="50" relative="1" as="geometry">
                        <mxPoint x="280" y="340" as="sourcePoint"/>
                        <mxPoint x="330" y="290" as="targetPoint"/>
                    </mxGeometry>
                </mxCell>
                <mxCell id="56" value="home is not set" style="rounded=0;whiteSpace=wrap;html=1;labelBackgroundColor=none;fontSize=14;fontColor=#0000FF;" parent="1" vertex="1">
                    <mxGeometry x="540" y="410" width="140" height="60" as="geometry"/>
                </mxCell>
                <mxCell id="57" value="home is set" style="rounded=0;whiteSpace=wrap;html=1;labelBackgroundColor=none;fontSize=14;fontColor=#0000FF;" parent="1" vertex="1">
                    <mxGeometry x="540" y="330" width="140" height="60" as="geometry"/>
                </mxCell>
                <mxCell id="60" value="" style="endArrow=none;html=1;strokeWidth=2;fontSize=14;fontColor=#0000FF;labelBackgroundColor=none;" parent="1" edge="1">
                    <mxGeometry width="50" height="50" relative="1" as="geometry">
                        <mxPoint x="440" y="470" as="sourcePoint"/>
                        <mxPoint x="490" y="400" as="targetPoint"/>
                    </mxGeometry>
                </mxCell>
                <mxCell id="62" value="" style="endArrow=none;html=1;strokeWidth=2;fontSize=14;fontColor=#0000FF;labelBackgroundColor=none;" parent="1" edge="1">
                    <mxGeometry width="50" height="50" relative="1" as="geometry">
                        <mxPoint x="440" y="340" as="sourcePoint"/>
                        <mxPoint x="490" y="400" as="targetPoint"/>
                    </mxGeometry>
                </mxCell>
                <mxCell id="64" value="" style="endArrow=none;html=1;strokeWidth=2;fontSize=14;fontColor=#0000FF;entryX=0;entryY=0.5;entryDx=0;entryDy=0;labelBackgroundColor=none;" parent="1" target="57" edge="1">
                    <mxGeometry width="50" height="50" relative="1" as="geometry">
                        <mxPoint x="510" y="400" as="sourcePoint"/>
                        <mxPoint x="560" y="400" as="targetPoint"/>
                    </mxGeometry>
                </mxCell>
                <mxCell id="65" value="" style="endArrow=none;html=1;strokeWidth=2;fontSize=14;fontColor=#0000FF;entryX=0;entryY=0.5;entryDx=0;entryDy=0;labelBackgroundColor=none;" parent="1" target="56" edge="1">
                    <mxGeometry width="50" height="50" relative="1" as="geometry">
                        <mxPoint x="510" y="400" as="sourcePoint"/>
                        <mxPoint x="560" y="400" as="targetPoint"/>
                    </mxGeometry>
                </mxCell>
                <mxCell id="66" value="" style="endArrow=none;html=1;strokeWidth=2;fontSize=14;fontColor=#0000FF;labelBackgroundColor=none;" parent="1" edge="1">
                    <mxGeometry width="50" height="50" relative="1" as="geometry">
                        <mxPoint x="490" y="400" as="sourcePoint"/>
                        <mxPoint x="510" y="400" as="targetPoint"/>
                    </mxGeometry>
                </mxCell>
                <mxCell id="67" value="" style="endArrow=none;html=1;strokeWidth=2;fontSize=14;fontColor=#FFFFFF;exitX=1;exitY=0.5;exitDx=0;exitDy=0;" parent="1" source="57" edge="1">
                    <mxGeometry width="50" height="50" relative="1" as="geometry">
                        <mxPoint x="650" y="390" as="sourcePoint"/>
                        <mxPoint x="760" y="360" as="targetPoint"/>
                    </mxGeometry>
                </mxCell>
                <mxCell id="68" value="" style="endArrow=none;html=1;strokeWidth=2;fontSize=14;fontColor=#FFFFFF;exitX=1;exitY=0.5;exitDx=0;exitDy=0;" parent="1" source="56" edge="1">
                    <mxGeometry width="50" height="50" relative="1" as="geometry">
                        <mxPoint x="670" y="370" as="sourcePoint"/>
                        <mxPoint x="760" y="440" as="targetPoint"/>
                        <Array as="points"/>
                    </mxGeometry>
                </mxCell>
                <mxCell id="69" value="&lt;span style=&quot;background-color: rgb(24, 20, 29);&quot;&gt;&lt;font color=&quot;#ff3333&quot;&gt;minishell: cd: HOME not set&lt;/font&gt;&lt;/span&gt;" style="rounded=0;whiteSpace=wrap;html=1;labelBackgroundColor=#003300;fontSize=14;fontColor=#FFFFFF;" parent="1" vertex="1">
                    <mxGeometry x="760" y="410" width="310" height="60" as="geometry"/>
                </mxCell>
                <mxCell id="70" value="&lt;span style=&quot;background-color: rgb(24, 20, 29);&quot;&gt;&lt;font color=&quot;#0000ff&quot;&gt;Chdir to home&lt;/font&gt;&lt;/span&gt;" style="rounded=0;whiteSpace=wrap;html=1;labelBackgroundColor=#003300;fontSize=14;fontColor=#FFFFFF;" parent="1" vertex="1">
                    <mxGeometry x="760" y="330" width="310" height="60" as="geometry"/>
                </mxCell>
                <mxCell id="97" value="OLDPWD is not set" style="rounded=0;whiteSpace=wrap;html=1;labelBackgroundColor=none;fontSize=14;fontColor=#0000FF;" parent="1" vertex="1">
                    <mxGeometry x="540" y="870" width="140" height="60" as="geometry"/>
                </mxCell>
                <mxCell id="98" value="OLDPWD is set" style="rounded=0;whiteSpace=wrap;html=1;labelBackgroundColor=none;fontSize=14;fontColor=#0000FF;" parent="1" vertex="1">
                    <mxGeometry x="540" y="790" width="140" height="60" as="geometry"/>
                </mxCell>
                <mxCell id="99" value="" style="endArrow=none;html=1;strokeWidth=2;fontSize=14;fontColor=#0000FF;entryX=0;entryY=0.5;entryDx=0;entryDy=0;labelBackgroundColor=none;" parent="1" target="98" edge="1">
                    <mxGeometry width="50" height="50" relative="1" as="geometry">
                        <mxPoint x="440" y="860" as="sourcePoint"/>
                        <mxPoint x="510" y="860" as="targetPoint"/>
                    </mxGeometry>
                </mxCell>
                <mxCell id="100" value="" style="endArrow=none;html=1;strokeWidth=2;fontSize=14;fontColor=#0000FF;entryX=0;entryY=0.5;entryDx=0;entryDy=0;exitX=1;exitY=0.5;exitDx=0;exitDy=0;labelBackgroundColor=none;" parent="1" source="41" target="97" edge="1">
                    <mxGeometry width="50" height="50" relative="1" as="geometry">
                        <mxPoint x="459.9999999999998" y="860" as="sourcePoint"/>
                        <mxPoint x="510" y="860" as="targetPoint"/>
                    </mxGeometry>
                </mxCell>
                <mxCell id="101" value="" style="endArrow=none;html=1;strokeWidth=2;fontSize=14;fontColor=#0000FF;labelBackgroundColor=none;" parent="1" edge="1">
                    <mxGeometry width="50" height="50" relative="1" as="geometry">
                        <mxPoint x="439.9999999999998" y="860" as="sourcePoint"/>
                        <mxPoint x="440" y="860" as="targetPoint"/>
                    </mxGeometry>
                </mxCell>
                <mxCell id="102" value="" style="endArrow=none;html=1;strokeWidth=2;fontSize=14;fontColor=#FFFFFF;entryX=0;entryY=0.5;entryDx=0;entryDy=0;" parent="1" target="105" edge="1">
                    <mxGeometry width="50" height="50" relative="1" as="geometry">
                        <mxPoint x="680" y="820" as="sourcePoint"/>
                        <mxPoint x="729.9999999999998" y="820" as="targetPoint"/>
                    </mxGeometry>
                </mxCell>
                <mxCell id="103" value="" style="endArrow=none;html=1;strokeWidth=2;fontSize=14;fontColor=#FFFFFF;entryX=0;entryY=0.5;entryDx=0;entryDy=0;" parent="1" target="104" edge="1">
                    <mxGeometry width="50" height="50" relative="1" as="geometry">
                        <mxPoint x="680" y="900" as="sourcePoint"/>
                        <mxPoint x="729.9999999999998" y="900" as="targetPoint"/>
                        <Array as="points"/>
                    </mxGeometry>
                </mxCell>
                <mxCell id="104" value="&lt;font color=&quot;#ff3333&quot;&gt;&lt;span style=&quot;background-color: rgb(24, 20, 29);&quot;&gt;minishell : cd : OLDPWD not set&lt;/span&gt;&lt;/font&gt;" style="rounded=0;whiteSpace=wrap;html=1;labelBackgroundColor=#003300;fontSize=14;fontColor=#FFFFFF;" parent="1" vertex="1">
                    <mxGeometry x="760" y="870" width="310" height="60" as="geometry"/>
                </mxCell>
                <mxCell id="105" value="&lt;span style=&quot;background-color: rgb(24, 20, 29);&quot;&gt;&lt;font color=&quot;#0000ff&quot;&gt;Chdir to OLDPWD&lt;/font&gt;&lt;/span&gt;" style="rounded=0;whiteSpace=wrap;html=1;labelBackgroundColor=#003300;fontSize=14;fontColor=#FFFFFF;" parent="1" vertex="1">
                    <mxGeometry x="760" y="790" width="310" height="60" as="geometry"/>
                </mxCell>
                <mxCell id="106" value="Path does not exist" style="rounded=0;whiteSpace=wrap;html=1;labelBackgroundColor=none;fontSize=14;fontColor=#0000FF;" parent="1" vertex="1">
                    <mxGeometry x="540" y="675" width="140" height="60" as="geometry"/>
                </mxCell>
                <mxCell id="107" value="Path exist" style="rounded=0;whiteSpace=wrap;html=1;labelBackgroundColor=none;fontSize=14;fontColor=#0000FF;" parent="1" vertex="1">
                    <mxGeometry x="540" y="595" width="140" height="60" as="geometry"/>
                </mxCell>
                <mxCell id="108" value="" style="endArrow=none;html=1;strokeWidth=2;fontSize=14;fontColor=#0000FF;exitX=1;exitY=0.5;exitDx=0;exitDy=0;labelBackgroundColor=none;" parent="1" source="43" edge="1">
                    <mxGeometry width="50" height="50" relative="1" as="geometry">
                        <mxPoint x="439.9999999999998" y="735" as="sourcePoint"/>
                        <mxPoint x="489.9999999999998" y="665" as="targetPoint"/>
                    </mxGeometry>
                </mxCell>
                <mxCell id="109" value="" style="endArrow=none;html=1;strokeWidth=2;fontSize=14;fontColor=#0000FF;exitX=1;exitY=0.5;exitDx=0;exitDy=0;labelBackgroundColor=none;" parent="1" source="42" edge="1">
                    <mxGeometry width="50" height="50" relative="1" as="geometry">
                        <mxPoint x="439.9999999999998" y="605" as="sourcePoint"/>
                        <mxPoint x="489.9999999999998" y="665" as="targetPoint"/>
                    </mxGeometry>
                </mxCell>
                <mxCell id="110" value="" style="endArrow=none;html=1;strokeWidth=2;fontSize=14;fontColor=#0000FF;entryX=0;entryY=0.5;entryDx=0;entryDy=0;labelBackgroundColor=none;" parent="1" target="107" edge="1">
                    <mxGeometry width="50" height="50" relative="1" as="geometry">
                        <mxPoint x="509.9999999999998" y="665" as="sourcePoint"/>
                        <mxPoint x="560" y="665" as="targetPoint"/>
                    </mxGeometry>
                </mxCell>
                <mxCell id="111" value="" style="endArrow=none;html=1;strokeWidth=2;fontSize=14;fontColor=#0000FF;entryX=0;entryY=0.5;entryDx=0;entryDy=0;labelBackgroundColor=none;" parent="1" target="106" edge="1">
                    <mxGeometry width="50" height="50" relative="1" as="geometry">
                        <mxPoint x="509.9999999999998" y="665" as="sourcePoint"/>
                        <mxPoint x="560" y="665" as="targetPoint"/>
                    </mxGeometry>
                </mxCell>
                <mxCell id="112" value="" style="endArrow=none;html=1;strokeWidth=2;fontSize=14;fontColor=#0000FF;labelBackgroundColor=none;" parent="1" edge="1">
                    <mxGeometry width="50" height="50" relative="1" as="geometry">
                        <mxPoint x="489.9999999999998" y="665" as="sourcePoint"/>
                        <mxPoint x="509.9999999999998" y="665" as="targetPoint"/>
                    </mxGeometry>
                </mxCell>
                <mxCell id="113" value="" style="endArrow=none;html=1;strokeWidth=2;fontSize=14;fontColor=#FFFFFF;exitX=1;exitY=0.5;exitDx=0;exitDy=0;" parent="1" source="107" edge="1">
                    <mxGeometry width="50" height="50" relative="1" as="geometry">
                        <mxPoint x="650" y="655" as="sourcePoint"/>
                        <mxPoint x="759.9999999999998" y="625" as="targetPoint"/>
                    </mxGeometry>
                </mxCell>
                <mxCell id="114" value="" style="endArrow=none;html=1;strokeWidth=2;fontSize=14;fontColor=#FFFFFF;exitX=1;exitY=0.5;exitDx=0;exitDy=0;" parent="1" source="106" edge="1">
                    <mxGeometry width="50" height="50" relative="1" as="geometry">
                        <mxPoint x="670" y="635" as="sourcePoint"/>
                        <mxPoint x="759.9999999999998" y="705" as="targetPoint"/>
                        <Array as="points"/>
                    </mxGeometry>
                </mxCell>
                <mxCell id="115" value="&lt;span style=&quot;background-color: rgb(24, 20, 29);&quot;&gt;&lt;font color=&quot;#ff3333&quot;&gt;minishell: cd: HOME not set&lt;/font&gt;&lt;/span&gt;" style="rounded=0;whiteSpace=wrap;html=1;labelBackgroundColor=#003300;fontSize=14;fontColor=#FFFFFF;" parent="1" vertex="1">
                    <mxGeometry x="760" y="675" width="310" height="60" as="geometry"/>
                </mxCell>
                <mxCell id="116" value="&lt;span style=&quot;background-color: rgb(24, 20, 29);&quot;&gt;&lt;font color=&quot;#0000ff&quot;&gt;Chdir to home&lt;/font&gt;&lt;/span&gt;" style="rounded=0;whiteSpace=wrap;html=1;labelBackgroundColor=#003300;fontSize=14;fontColor=#FFFFFF;" parent="1" vertex="1">
                    <mxGeometry x="760" y="595" width="310" height="60" as="geometry"/>
                </mxCell>
                <mxCell id="117" value="" style="endArrow=none;html=1;strokeWidth=2;fontSize=14;fontColor=#33FF33;" parent="1" edge="1">
                    <mxGeometry width="50" height="50" relative="1" as="geometry">
                        <mxPoint x="1070" y="360" as="sourcePoint"/>
                        <mxPoint x="1160" y="360" as="targetPoint"/>
                    </mxGeometry>
                </mxCell>
                <mxCell id="120" value="&lt;font color=&quot;#0000ff&quot;&gt;OLDPWD is not set&lt;/font&gt;" style="rounded=0;whiteSpace=wrap;html=1;labelBackgroundColor=#18141d;fontSize=14;fontColor=#33FF33;" parent="1" vertex="1">
                    <mxGeometry x="1200" y="290" width="150" height="60" as="geometry"/>
                </mxCell>
                <mxCell id="123" value="&lt;font color=&quot;#0000ff&quot;&gt;OLDPWD is set&lt;/font&gt;" style="rounded=0;whiteSpace=wrap;html=1;labelBackgroundColor=#18141d;fontSize=14;fontColor=#33FF33;" parent="1" vertex="1">
                    <mxGeometry x="1200" y="370" width="150" height="60" as="geometry"/>
                </mxCell>
                <mxCell id="124" value="" style="endArrow=none;html=1;strokeWidth=2;fontSize=14;fontColor=#33FF33;entryX=0;entryY=0.5;entryDx=0;entryDy=0;" parent="1" target="123" edge="1">
                    <mxGeometry width="50" height="50" relative="1" as="geometry">
                        <mxPoint x="1160" y="360" as="sourcePoint"/>
                        <mxPoint x="1260" y="460" as="targetPoint"/>
                    </mxGeometry>
                </mxCell>
                <mxCell id="125" value="" style="endArrow=none;html=1;strokeWidth=2;fontSize=14;fontColor=#33FF33;entryX=0;entryY=0.5;entryDx=0;entryDy=0;" parent="1" target="120" edge="1">
                    <mxGeometry width="50" height="50" relative="1" as="geometry">
                        <mxPoint x="1160" y="360" as="sourcePoint"/>
                        <mxPoint x="1230" y="440" as="targetPoint"/>
                    </mxGeometry>
                </mxCell>
                <mxCell id="126" value="" style="endArrow=none;html=1;strokeWidth=2;fontSize=14;fontColor=#33FF33;" parent="1" source="120" edge="1">
                    <mxGeometry width="50" height="50" relative="1" as="geometry">
                        <mxPoint x="1350" y="370" as="sourcePoint"/>
                        <mxPoint x="1420.7106781186549" y="320" as="targetPoint"/>
                    </mxGeometry>
                </mxCell>
                <mxCell id="127" value="&lt;font color=&quot;#0000ff&quot;&gt;export OLDPWD&lt;/font&gt;" style="rounded=0;whiteSpace=wrap;html=1;labelBackgroundColor=#18141d;fontSize=14;fontColor=#33FF33;" parent="1" vertex="1">
                    <mxGeometry x="1420" y="290" width="120" height="60" as="geometry"/>
                </mxCell>
                <mxCell id="128" value="" style="endArrow=none;html=1;strokeWidth=2;fontSize=14;fontColor=#33FF33;" parent="1" edge="1">
                    <mxGeometry width="50" height="50" relative="1" as="geometry">
                        <mxPoint x="1540" y="320" as="sourcePoint"/>
                        <mxPoint x="1610" y="320" as="targetPoint"/>
                    </mxGeometry>
                </mxCell>
                <mxCell id="129" value="change PWD" style="rounded=0;whiteSpace=wrap;html=1;labelBackgroundColor=#18141d;fontSize=14;fontColor=#33FF33;" parent="1" vertex="1">
                    <mxGeometry x="1610" y="290" width="120" height="60" as="geometry"/>
                </mxCell>
                <mxCell id="130" value="" style="endArrow=none;html=1;strokeWidth=2;fontSize=14;fontColor=#33FF33;" parent="1" edge="1">
                    <mxGeometry width="50" height="50" relative="1" as="geometry">
                        <mxPoint x="1350" y="400" as="sourcePoint"/>
                        <mxPoint x="1420" y="400" as="targetPoint"/>
                    </mxGeometry>
                </mxCell>
                <mxCell id="131" value="change PWD&lt;br&gt;change OLDPWD" style="rounded=0;whiteSpace=wrap;html=1;labelBackgroundColor=#18141d;fontSize=14;fontColor=#33FF33;" parent="1" vertex="1">
                    <mxGeometry x="1420" y="370" width="120" height="60" as="geometry"/>
                </mxCell>
                <mxCell id="132" value="" style="endArrow=none;html=1;strokeWidth=2;fontSize=14;fontColor=#33FF33;" parent="1" edge="1">
                    <mxGeometry width="50" height="50" relative="1" as="geometry">
                        <mxPoint x="1070" y="625" as="sourcePoint"/>
                        <mxPoint x="1160" y="625" as="targetPoint"/>
                    </mxGeometry>
                </mxCell>
                <mxCell id="133" value="&lt;font color=&quot;#0000ff&quot;&gt;OLDPWD is not set&lt;/font&gt;" style="rounded=0;whiteSpace=wrap;html=1;labelBackgroundColor=#18141d;fontSize=14;fontColor=#33FF33;" parent="1" vertex="1">
                    <mxGeometry x="1200" y="555" width="150" height="60" as="geometry"/>
                </mxCell>
                <mxCell id="134" value="&lt;font color=&quot;#0000ff&quot;&gt;OLDPWD is set&lt;/font&gt;" style="rounded=0;whiteSpace=wrap;html=1;labelBackgroundColor=#18141d;fontSize=14;fontColor=#33FF33;" parent="1" vertex="1">
                    <mxGeometry x="1200" y="635" width="150" height="60" as="geometry"/>
                </mxCell>
                <mxCell id="135" value="" style="endArrow=none;html=1;strokeWidth=2;fontSize=14;fontColor=#33FF33;entryX=0;entryY=0.5;entryDx=0;entryDy=0;" parent="1" target="134" edge="1">
                    <mxGeometry width="50" height="50" relative="1" as="geometry">
                        <mxPoint x="1160" y="625" as="sourcePoint"/>
                        <mxPoint x="1260" y="725" as="targetPoint"/>
                    </mxGeometry>
                </mxCell>
                <mxCell id="136" value="" style="endArrow=none;html=1;strokeWidth=2;fontSize=14;fontColor=#33FF33;entryX=0;entryY=0.5;entryDx=0;entryDy=0;" parent="1" target="133" edge="1">
                    <mxGeometry width="50" height="50" relative="1" as="geometry">
                        <mxPoint x="1160" y="625" as="sourcePoint"/>
                        <mxPoint x="1230" y="705" as="targetPoint"/>
                    </mxGeometry>
                </mxCell>
                <mxCell id="137" value="" style="endArrow=none;html=1;strokeWidth=2;fontSize=14;fontColor=#33FF33;" parent="1" source="133" edge="1">
                    <mxGeometry width="50" height="50" relative="1" as="geometry">
                        <mxPoint x="1350" y="635" as="sourcePoint"/>
                        <mxPoint x="1420.7106781186553" y="585" as="targetPoint"/>
                    </mxGeometry>
                </mxCell>
                <mxCell id="138" value="&lt;font color=&quot;#0000ff&quot;&gt;export OLDPWD&lt;/font&gt;" style="rounded=0;whiteSpace=wrap;html=1;labelBackgroundColor=#18141d;fontSize=14;fontColor=#33FF33;" parent="1" vertex="1">
                    <mxGeometry x="1420" y="555" width="120" height="60" as="geometry"/>
                </mxCell>
                <mxCell id="139" value="" style="endArrow=none;html=1;strokeWidth=2;fontSize=14;fontColor=#33FF33;" parent="1" edge="1">
                    <mxGeometry width="50" height="50" relative="1" as="geometry">
                        <mxPoint x="1540" y="585" as="sourcePoint"/>
                        <mxPoint x="1610" y="585" as="targetPoint"/>
                    </mxGeometry>
                </mxCell>
                <mxCell id="140" value="change PWD" style="rounded=0;whiteSpace=wrap;html=1;labelBackgroundColor=#18141d;fontSize=14;fontColor=#33FF33;" parent="1" vertex="1">
                    <mxGeometry x="1610" y="555" width="120" height="60" as="geometry"/>
                </mxCell>
                <mxCell id="141" value="" style="endArrow=none;html=1;strokeWidth=2;fontSize=14;fontColor=#33FF33;" parent="1" edge="1">
                    <mxGeometry width="50" height="50" relative="1" as="geometry">
                        <mxPoint x="1350" y="665" as="sourcePoint"/>
                        <mxPoint x="1420" y="665" as="targetPoint"/>
                    </mxGeometry>
                </mxCell>
                <mxCell id="142" value="change PWD&lt;br&gt;change OLDPWD" style="rounded=0;whiteSpace=wrap;html=1;labelBackgroundColor=#18141d;fontSize=14;fontColor=#33FF33;" parent="1" vertex="1">
                    <mxGeometry x="1420" y="635" width="120" height="60" as="geometry"/>
                </mxCell>
                <mxCell id="143" value="" style="endArrow=none;html=1;strokeWidth=2;fontSize=14;fontColor=#33FF33;" parent="1" edge="1">
                    <mxGeometry width="50" height="50" relative="1" as="geometry">
                        <mxPoint x="1070" y="820" as="sourcePoint"/>
                        <mxPoint x="1160" y="820" as="targetPoint"/>
                    </mxGeometry>
                </mxCell>
                <mxCell id="144" value="&lt;font color=&quot;#0000ff&quot;&gt;OLDPWD is not set&lt;/font&gt;" style="rounded=0;whiteSpace=wrap;html=1;labelBackgroundColor=#18141d;fontSize=14;fontColor=#33FF33;" parent="1" vertex="1">
                    <mxGeometry x="1200" y="750" width="150" height="60" as="geometry"/>
                </mxCell>
                <mxCell id="145" value="&lt;font color=&quot;#0000ff&quot;&gt;OLDPWD is set&lt;/font&gt;" style="rounded=0;whiteSpace=wrap;html=1;labelBackgroundColor=#18141d;fontSize=14;fontColor=#33FF33;" parent="1" vertex="1">
                    <mxGeometry x="1200" y="830" width="150" height="60" as="geometry"/>
                </mxCell>
                <mxCell id="146" value="" style="endArrow=none;html=1;strokeWidth=2;fontSize=14;fontColor=#33FF33;entryX=0;entryY=0.5;entryDx=0;entryDy=0;" parent="1" target="145" edge="1">
                    <mxGeometry width="50" height="50" relative="1" as="geometry">
                        <mxPoint x="1160" y="820" as="sourcePoint"/>
                        <mxPoint x="1260" y="920" as="targetPoint"/>
                    </mxGeometry>
                </mxCell>
                <mxCell id="147" value="" style="endArrow=none;html=1;strokeWidth=2;fontSize=14;fontColor=#33FF33;entryX=0;entryY=0.5;entryDx=0;entryDy=0;" parent="1" target="144" edge="1">
                    <mxGeometry width="50" height="50" relative="1" as="geometry">
                        <mxPoint x="1160" y="820" as="sourcePoint"/>
                        <mxPoint x="1230" y="900" as="targetPoint"/>
                    </mxGeometry>
                </mxCell>
                <mxCell id="148" value="" style="endArrow=none;html=1;strokeWidth=2;fontSize=14;fontColor=#33FF33;" parent="1" source="144" edge="1">
                    <mxGeometry width="50" height="50" relative="1" as="geometry">
                        <mxPoint x="1350" y="830" as="sourcePoint"/>
                        <mxPoint x="1420.7106781186553" y="780" as="targetPoint"/>
                    </mxGeometry>
                </mxCell>
                <mxCell id="149" value="&lt;font color=&quot;#0000ff&quot;&gt;export OLDPWD&lt;/font&gt;" style="rounded=0;whiteSpace=wrap;html=1;labelBackgroundColor=#18141d;fontSize=14;fontColor=#33FF33;" parent="1" vertex="1">
                    <mxGeometry x="1420" y="750" width="120" height="60" as="geometry"/>
                </mxCell>
                <mxCell id="150" value="" style="endArrow=none;html=1;strokeWidth=2;fontSize=14;fontColor=#33FF33;" parent="1" edge="1">
                    <mxGeometry width="50" height="50" relative="1" as="geometry">
                        <mxPoint x="1540" y="780" as="sourcePoint"/>
                        <mxPoint x="1610" y="780" as="targetPoint"/>
                    </mxGeometry>
                </mxCell>
                <mxCell id="151" value="change PWD" style="rounded=0;whiteSpace=wrap;html=1;labelBackgroundColor=#18141d;fontSize=14;fontColor=#33FF33;" parent="1" vertex="1">
                    <mxGeometry x="1610" y="750" width="120" height="60" as="geometry"/>
                </mxCell>
                <mxCell id="152" value="" style="endArrow=none;html=1;strokeWidth=2;fontSize=14;fontColor=#33FF33;" parent="1" edge="1">
                    <mxGeometry width="50" height="50" relative="1" as="geometry">
                        <mxPoint x="1350" y="860" as="sourcePoint"/>
                        <mxPoint x="1420" y="860" as="targetPoint"/>
                    </mxGeometry>
                </mxCell>
                <mxCell id="153" value="change PWD&lt;br&gt;change OLDPWD" style="rounded=0;whiteSpace=wrap;html=1;labelBackgroundColor=#18141d;fontSize=14;fontColor=#33FF33;" parent="1" vertex="1">
                    <mxGeometry x="1420" y="830" width="120" height="60" as="geometry"/>
                </mxCell>
            </root>
        </mxGraphModel>
    </diagram>
</mxfile>